<?xml version="1.0" encoding="UTF-8"?>
<svg width="752pt" height="752pt" version="1.1" viewBox="0 0 752 752" xmlns="http://www.w3.org/2000/svg">
 <g>
  <path d="m376 506.77c0.35156 0 1.0586 0 1.4141-0.35156l136.77-58.668c1.4141-0.70703 2.1211-1.7656 2.1211-3.1797v-137.13c0-1.0586-0.70703-2.1211-1.4141-2.8281-1.0586-0.70703-2.1211-0.70703-3.1797-0.35156l-136.77 58.668c-1.4141 0.70703-2.1211 1.7656-2.1211 3.1797v137.12c0 1.0586 0.70703 2.1211 1.4141 2.8281 0.35547 0.35547 1.0625 0.70703 1.7695 0.70703zm133.24-64.676-129.71 55.84v-129.35l129.71-55.484z"/>
  <path d="m376 506.77c0.70703 0 1.4141-0.35156 2.1211-0.70703 1.0586-0.70703 1.4141-1.7656 1.4141-2.8281l-0.003906-136.77c0-1.4141-0.70703-2.8281-2.1211-3.1797l-136.77-58.668c-1.0586-0.35156-2.4727-0.35156-3.1797 0.35156-1.0586 0.70703-1.4141 1.7656-1.4141 2.8281v136.77c0 1.4141 0.70703 2.8281 2.1211 3.1797l136.77 58.668s0.70703 0.35156 1.0625 0.35156zm-3.5352-138.19v129l-129.7-55.84v-128.64z"/>
  <path d="m240.64 310.97 135.36-58.312 135.36 58.312 2.8281-6.3633-136.77-58.668c-1.0586-0.35156-1.7656-0.35156-2.8281 0l-136.77 58.668z"/>
  <path d="m153.7 433.61 6.7148-1.7656c-4.5938-18.023-7.0703-36.754-7.0703-55.84 0-109.21 78.105-201.45 185.54-219.47l-1.0586-7.0703c-110.97 18.73-191.55 114.15-191.55 226.54 0 19.438 2.4727 38.879 7.4219 57.609z"/>
  <path d="m598.3 433.96c4.9453-18.73 7.418-38.523 7.418-57.961 0-112.39-80.578-207.81-191.2-226.54l-1.0586 7.0703c107.09 18.023 185.19 110.27 185.19 219.47 0 19.086-2.4727 37.816-7.0703 56.195z"/>
  <path d="m376 605.72c73.863 0 143.49-35.695 186.61-95.777l-5.6562-4.2422c-41.703 58.316-109.56 92.953-180.95 92.953s-138.54-34.637-180.6-92.242l-5.6562 4.2422c43.117 59.371 112.74 95.066 186.25 95.066z"/>
  <path d="m379.53 149.81h-7.0703v98.957h7.0703z"/>
  <path d="m358.68 172.43 17.32-17.672 17.316 17.316 4.9492-4.9492-19.793-19.793c-1.4141-1.4141-3.5352-1.4141-4.9492 0l-19.793 19.793z"/>
  <path d="m594.41 475.52-80.215-34.438-2.7891 6.4961 80.215 34.438z"/>
  <path d="m568.61 492.28 25.797-10.25c1.7656-0.70703 2.8281-2.8281 2.1211-4.5938l-10.25-25.445-6.7148 2.4727 8.8359 22.266-22.266 8.8359z"/>
  <path d="m240.63 447.8-2.7891-6.4961-80.207 34.445 2.7891 6.4961z"/>
  <path d="m183.74 492.63 2.4727-6.7148-22.617-9.1875 9.1875-22.617-6.7148-2.4727-10.25 26.152c-0.70703 1.7656 0 3.8867 2.1211 4.5938z"/>
 </g>
</svg>
